#!OML:ASF E:\Style6\Style6.ASF
:FULLY-SPECIFIED
:DEGREES
3422
root 0.575493 17.3091 -1.92091 18.0108 -20.2087 7.09933
lowerback 15.1922 1.12242 11.3861
upperback 16.6758 1.92308 1.57444
thorax 10.4219 1.99604 -4.71107
lowerneck 1.98251 8.81989 19.3554
upperneck 17.7637 11.7703 -5.85271
head 6.68168 6.47795 -4.25658
rclavicle -3.18055e-014 -2.22639e-014
rhumerus 8.7244 -33.0325 -86.6179
rradius 41.5102
rwrist 26.3844
rhand -4.97457 9.72449
rfingers 7.12502
rthumb 20.8179 -19.1787
lclavicle -3.18055e-014 -2.22639e-014
lhumerus 56.6293 -25.1766 74.453
lradius 30.4475
lwrist -7.87235
lhand -3.33482 27.1707
lfingers 7.12502
lthumb 22.3926 55.8928
rfemur -53.5903 4.43078 9.47388
rtibia 40.5651
rfoot -2.64964 -1.52174
rtoes -14.2113
lfemur -44.1764 11.9318 -30.2062
ltibia 38.9526
lfoot -8.49503 10.3921
ltoes -23.0369
3423
root 0.572848 17.3037 -1.93091 17.9373 -20.1965 7.14042
lowerback 15.3404 1.13482 11.3891
upperback 16.7259 1.95524 1.54124
thorax 10.4114 2.01645 -4.75398
lowerneck 1.86055 8.86297 19.2863
upperneck 17.9159 11.7822 -5.70573
head 6.74153 6.48919 -4.18993
rclavicle -8.90555e-014 -2.70347e-014
rhumerus 8.68375 -32.9476 -86.5755
rradius 41.6437
rwrist 26.2637
rhand -5.02493 9.67422
rfingers 7.12502
rthumb 20.7695 -19.2342
lclavicle -8.90555e-014 -2.70347e-014
lhumerus 56.873 -25.0909 74.4811
lradius 30.5277
lwrist -7.88936
lhand -3.32485 27.2556
lfingers 7.12502
lthumb 22.4022 55.9766
rfemur -53.6002 4.39648 9.47767
rtibia 40.6374
rfoot -2.62756 -1.48643
rtoes -14.4109
lfemur -44.2082 11.9498 -30.2249
ltibia 39.061
lfoot -8.53927 10.3767
ltoes -22.7816
3424
root 0.570387 17.2998 -1.93957 17.9579 -20.171 7.1013
lowerback 15.3873 1.164 11.4492
upperback 16.761 2.00014 1.53759
thorax 10.445 2.04826 -4.79293
lowerneck 2.09046 8.81632 19.2673
upperneck 17.4571 11.7968 -5.88602
head 6.56184 6.47676 -4.2595
rclavicle -6.04305e-014 -2.06736e-014
rhumerus 8.7065 -33.0049 -86.5857
rradius 41.708
rwrist 26.2879
rhand -4.99181 9.63551
rfingers 7.12502
rthumb 20.8013 -19.2695
lclavicle -6.04305e-014 -2.06736e-014
lhumerus 57.0039 -24.9223 74.749
lradius 30.6162
lwrist -8.11964
lhand -3.20134 27.231
lfingers 7.12502
lthumb 22.5207 55.9377
rfemur -53.668 4.35908 9.56024
rtibia 40.6989
rfoot -2.57475 -1.46353
rtoes -14.7968
lfemur -44.3124 11.9518 -30.1718
ltibia 39.1662
lfoot -8.56901 10.3536
ltoes -22.4445
3425
root 0.568531 17.2958 -1.9483 17.9964 -20.1401 7.06154
lowerback 15.4421 1.18114 11.5133
upperback 16.7891 2.03146 1.53418
thorax 10.4635 2.07286 -4.83384
lowerneck 1.73073 8.85079 18.9933
upperneck 17.8432 11.7252 -5.51616
head 6.70098 6.45043 -4.08531
rclavicle -4.13472e-014 -2.8625e-014
rhumerus 8.70018 -33.0231 -86.567
rradius 41.7762
rwrist 26.2588
rhand -4.9048 9.67353
rfingers 7.12502
rthumb 20.8849 -19.2223
lclavicle -4.13472e-014 -2.8625e-014
lhumerus 57.0922 -24.7282 75.0645
lradius 30.7559
lwrist -8.36024
lhand -3.20582 27.2658
lfingers 7.12502
lthumb 22.5164 55.9729
rfemur -53.7407 4.31808 9.63655
rtibia 40.7476
rfoot -2.52931 -1.41576
rtoes -14.9798
lfemur -44.4312 11.9261 -30.1195
ltibia 39.2787
lfoot -8.65154 10.3071
ltoes -21.7199
3426
root 0.567261 17.2924 -1.95849 18.0354 -20.0895 6.99545
lowerback 15.5181 1.16524 11.6494
upperback 16.8273 2.02801 1.5141
thorax 10.486 2.09015 -4.93136
lowerneck 1.71362 8.86584 18.87
upperneck 17.8258 11.7284 -5.40424
head 6.68405 6.44929 -4.02973
rclavicle 8.26944e-014 6.04305e-014
rhumerus 8.69876 -32.8867 -86.5155
rradius 41.8656
rwrist 26.1448
rhand -4.8689 9.55073
rfingers 7.12502
rthumb 20.9194 -19.3413
lclavicle 8.26944e-014 6.04305e-014
lhumerus 57.2517 -24.5398 75.2452
lradius 30.8714
lwrist -8.51544
lhand -3.25428 27.1754
lfingers 7.12502
lthumb 22.4699 55.8882
rfemur -53.7938 4.26428 9.75116
rtibia 40.7719
rfoot -2.54883 -1.3873
rtoes -14.7946
lfemur -44.5515 11.933 -30.056
ltibia 39.3867
lfoot -8.62961 10.2747
ltoes -21.789
3427
root 0.564638 17.2871 -1.97035 18.1007 -20.0366 6.96392
lowerback 15.6105 1.15655 11.7284
upperback 16.8511 2.0336 1.49461
thorax 10.4767 2.10376 -4.99875
lowerneck 2.03038 8.87858 18.9047
upperneck 17.3221 11.8451 -5.65366
head 6.4961 6.48515 -4.12435
rclavicle -3.18055e-014 -3.81667e-014
rhumerus 8.74389 -32.8029 -86.5053
rradius 41.9092
rwrist 26.1474
rhand -4.87876 9.47924
rfingers 7.12502
rthumb 20.9099 -19.4138
lclavicle -3.18055e-014 -3.81667e-014
lhumerus 57.5523 -24.4524 75.1713
lradius 30.9701
lwrist -8.34112
lhand -3.30219 27.1274
lfingers 7.12502
lthumb 22.4239 55.8458
rfemur -53.8932 4.21691 9.82212
rtibia 40.7826
rfoot -2.53509 -1.39588
rtoes -14.4429
lfemur -44.7255 11.9464 -30.0335
ltibia 39.485
lfoot -8.59586 10.2395
ltoes -21.8597
3428
root 0.562129 17.2845 -1.98028 18.1376 -19.9968 6.94412
lowerback 15.7092 1.17689 11.761
upperback 16.8732 2.07353 1.4905
thorax 10.4621 2.12763 -5.02558
lowerneck 1.8015 8.86295 18.7872
upperneck 17.3506 11.7915 -5.6578
head 6.52814 6.45039 -4.10291
rclavicle 9.54166e-015 -1.74931e-014
rhumerus 8.74686 -32.8028 -86.4795
rradius 41.9514
rwrist 26.1566
rhand -4.88191 9.49226
rfingers 7.12502
rthumb 20.9069 -19.4011
lclavicle 9.54166e-015 -1.74931e-014
lhumerus 57.8369 -24.441 75.09
lradius 31.0617
lwrist -8.23404
lhand -3.28368 27.1097
lfingers 7.12502
lthumb 22.4417 55.8259
rfemur -53.9542 4.17541 9.8803
rtibia 40.7907
rfoot -2.50612 -1.40998
rtoes -14.2558
lfemur -44.8443 11.9319 -30.0048
ltibia 39.5582
lfoot -8.55988 10.2643
ltoes -22.229
